<?xml version="1.0" encoding="UTF-8"?>
<svg id="Layer_2" data-name="Layer 2" xmlns="http://www.w3.org/2000/svg" viewBox="0 0 42.84 43.38">
  <defs>
    <style>
      .cls-1 {
        fill: #fff;
      }

      .cls-2 {
        fill: #2fa6df;
      }
    </style>
  </defs>
  <g id="Letterhead">
    <g id="Taki_Vector_فشنه" data-name="Taki Vector فشنه">
      <g>
        <g>
          <path class="cls-2" d="M1.99,4.86C13.31,3.24,24.63,1.63,35.95,.02c.62-.08,1.27,.12,1.75,.52s.78,1.01,.8,1.64c0,2.35,0,4.7,0,7.04-6.03,4.72-11.25,10.46-15.37,16.92-.61-.57-1.21-1.14-1.77-1.75,.97-.73,1.71-1.77,2.07-2.93,.22-.67,.24-1.4,.1-2.08-.17-.8-.53-1.54-.91-2.25-.4-.75-.75-1.54-1.36-2.15-.49-.51-1.16-.87-1.87-.88-.75-.01-1.54,.27-2.03,.86-.4,.49-.55,1.14-.55,1.76s.16,1.26,.41,1.84c.53,1.36,1.19,2.67,1.95,3.91-1.96,1.1-4.2,1.54-6.4,1.85-4.25,.58-8.59,.38-12.77-.52V7.03c.04-1.07,.91-2.03,1.98-2.17Zm17.04,5.23c-.3,.33-.56,.69-.77,1.09-.08,.17-.31,.24-.46,.12-.36-.22-.71-.45-1.08-.68-.49,.62-.92,1.3-1.28,2.01,.58,.36,1.16,.73,1.74,1.09,.31-.35,.58-.74,.81-1.14,.07-.14,.27-.21,.41-.12,.38,.21,.75,.43,1.14,.64,.2-.2,.35-.45,.51-.69,.27-.43,.54-.87,.78-1.32-.6-.34-1.19-.68-1.79-1.01Z"/>
          <path class="cls-2" d="M41.42,2.81c.65-.25,1.43,.28,1.42,.99-.01,10.62-.03,21.25-.04,31.86,.03,.41-.03,.87-.36,1.17-.4,.41-1.09,.4-1.5,0,.54-.16,.99-.66,.99-1.24V3.79c.01-.38-.2-.74-.5-.97Z"/>
          <path class="cls-2" d="M24.38,28.72c3.83-5.98,8.61-11.36,14.11-15.85,0,7.45,0,14.9,0,22.35,.03,.85-.29,1.71-.89,2.31-.34,.34-.78,.6-1.27,.62-4.88,0-9.76,0-14.64,0-1.8,1.74-3.6,3.49-5.41,5.23-.81-1.74-1.6-3.49-2.41-5.23H2.64c-.26,0-.53,.02-.78-.03-.7-.14-1.32-.62-1.62-1.27-.19-.38-.24-.82-.22-1.24C0,32.53,0,29.46,0,26.38c4.63,1.1,9.47,1.34,14.17,.62,2.31-.33,4.59-1.05,6.61-2.23,1.13,1.39,2.39,2.65,3.6,3.95Z"/>
          <path class="cls-2" d="M19.15,17.32c.66-.42,1.53-.49,2.26-.22,.25,.08,.51,.21,.64,.46,.18,.3,.11,.65,.06,.98-.32,1.42-1.25,2.69-2.51,3.43-.34-.45-.66-.92-.97-1.38-.32-.49-.4-1.09-.36-1.66,.05-.63,.34-1.26,.88-1.61Z"/>
        </g>
        <g>
          <path class="cls-1" d="M38.67,2.31c0-.59-.23-1.16-.58-1.62,1.09,.77,2.18,1.53,3.27,2.3,.23,.17,.4,.45,.39,.75,.01,6.64,0,13.29,0,19.93,0,4.01,.01,8.01,0,12.01,0,.28-.16,.54-.37,.71-.28,.24-.64,.32-.97,.45-.97,.34-1.94,.68-2.91,1.02,.71-.6,1.14-1.51,1.15-2.44,.02-11.04,.02-22.07,.02-33.1Z"/>
          <path class="cls-1" d="M23.13,26.14c4.11-6.46,9.33-12.2,15.36-16.92v3.64c-5.5,4.5-10.27,9.87-14.11,15.86-1.22-1.3-2.47-2.56-3.58-3.95-2.02,1.19-4.3,1.9-6.61,2.23-4.7,.72-9.54,.48-14.17-.62v-2.58c4.19,.9,8.53,1.1,12.77,.52,2.2-.31,4.44-.75,6.4-1.85-.77-1.25-1.42-2.55-1.95-3.91-.24-.58-.4-1.21-.41-1.84,0-.62,.15-1.27,.55-1.76,.49-.59,1.27-.87,2.03-.86,.71,0,1.38,.38,1.87,.88,.62,.61,.96,1.4,1.36,2.15,.38,.71,.74,1.46,.91,2.25,.15,.69,.12,1.42-.1,2.08-.36,1.17-1.09,2.2-2.07,2.93,.55,.61,1.15,1.18,1.76,1.75Zm-3.97-8.83c-.54,.35-.83,.98-.88,1.6-.04,.57,.03,1.18,.36,1.66,.31,.47,.64,.93,.97,1.38,1.25-.75,2.19-2.01,2.51-3.43,.06-.32,.12-.69-.06-.98-.14-.24-.4-.37-.64-.46-.73-.27-1.6-.2-2.26,.23Z"/>
          <path class="cls-1" d="M19.03,10.08c.6,.32,1.19,.67,1.78,1.02-.24,.45-.51,.89-.78,1.32-.16,.23-.31,.49-.51,.69-.38-.21-.76-.43-1.14-.64-.14-.09-.34-.02-.41,.12-.23,.41-.5,.79-.81,1.14-.58-.36-1.16-.73-1.74-1.09,.36-.71,.79-1.38,1.28-2.01,.36,.22,.71,.45,1.08,.68,.15,.12,.38,.05,.46-.12,.22-.41,.49-.77,.78-1.1Z"/>
        </g>
      </g>
    </g>
  </g>
</svg>