<svg width="27" height="27" viewBox="0 0 27 27" fill="none" xmlns="http://www.w3.org/2000/svg">
<path d="M10.305 12.2287C10.1925 12.2175 10.0575 12.2175 9.93375 12.2287C7.25625 12.1387 5.13 9.945 5.13 7.245C5.13 4.48875 7.3575 2.25 10.125 2.25C12.8813 2.25 15.12 4.48875 15.12 7.245C15.1088 9.945 12.9825 12.1387 10.305 12.2287Z" stroke="black" stroke-width="1.5" stroke-linecap="round" stroke-linejoin="round"/>
<path d="M18.4613 4.5C20.6438 4.5 22.3988 6.26625 22.3988 8.4375C22.3988 10.5637 20.7113 12.2962 18.6075 12.375C18.5175 12.3638 18.4163 12.3638 18.315 12.375" stroke="black" stroke-width="1.5" stroke-linecap="round" stroke-linejoin="round"/>
<path d="M4.68 16.38C1.9575 18.2025 1.9575 21.1725 4.68 22.9837C7.77375 25.0537 12.8475 25.0537 15.9412 22.9837C18.6638 21.1612 18.6638 18.1913 15.9412 16.38C12.8587 14.3213 7.785 14.3213 4.68 16.38Z" stroke="black" stroke-width="1.5" stroke-linecap="round" stroke-linejoin="round"/>
<path d="M20.6325 22.5C21.4425 22.3312 22.2075 22.005 22.8375 21.5212C24.5925 20.205 24.5925 18.0337 22.8375 16.7175C22.2188 16.245 21.465 15.93 20.6663 15.75" stroke="black" stroke-width="1.5" stroke-linecap="round" stroke-linejoin="round"/>
</svg>
